<?xml version="1.0" encoding="UTF-8"?> <svg xmlns="http://www.w3.org/2000/svg" width="968" height="131" viewBox="0 0 968 131" fill="none"><path fill-rule="evenodd" clip-rule="evenodd" d="M811.709 97.3468C811.578 97.148 811.448 96.9493 811.318 96.7509C807.793 91.4624 804.107 86.4945 800.581 81.8471C820.773 77.0394 827.664 65.9818 827.664 46.1102V45.6294C827.664 18.0655 814.684 8.93094 775.421 8.93094H691.928C692.088 15.499 692.088 20.9461 692.088 28.9541V96.9238C692.088 108.615 692.088 115.343 691.928 122.712H719.172C719.011 114.86 719.011 109.411 719.011 96.9111V86.6548H773.338L784.235 101.879C789.363 109.091 794.171 116.142 798.177 122.712H799.441L802.556 116.389C804.808 111.818 807.989 105.188 811.709 97.3468ZM799.94 47.0717C799.94 35.8538 794.652 31.6872 774.46 31.6872H719.011V64.219H774.46C794.652 64.219 799.94 58.9306 799.94 47.3922V47.0717Z" fill="#01153D"></path><path fill-rule="evenodd" clip-rule="evenodd" d="M533.923 96.9111C533.923 108.61 533.923 115.34 533.763 122.712H620.461C658.923 122.712 670.942 114.539 670.942 92.5842V91.9432C670.942 77.1997 665.333 68.2254 644.5 63.8985C664.211 59.7319 668.698 50.9178 668.698 37.9371V37.6166C668.698 17.4245 657.48 8.93094 619.179 8.93094H533.763C533.923 15.5014 533.923 20.9501 533.923 28.9629V96.9111ZM619.339 29.9244C636.807 29.9244 641.294 33.45 641.294 41.9435V42.264C641.294 51.0781 636.487 54.9242 619.019 54.9242H560.846V29.9244H619.339ZM619.98 75.4369C637.929 75.4369 643.538 78.642 643.538 88.5778V88.8983C643.538 98.6739 638.57 101.719 619.98 101.719H560.846V75.4369H619.98Z" fill="#01153D"></path><path d="M358.017 122.712H331.575C331.736 115.34 331.736 108.61 331.736 97.5521V29.2834C331.736 21.1103 331.736 15.8219 331.575 8.93094H384.62L404.972 59.7319C410.261 73.3536 415.549 87.7766 419.716 99.956H420.357C424.684 87.7766 429.812 73.5138 435.1 60.0524L455.933 8.93094H507.055C506.895 15.8219 506.895 21.1103 506.895 29.1231V97.2316C506.895 108.449 506.895 115.18 507.055 122.712H479.811C479.972 110.052 479.972 95.9496 479.972 83.1292C479.972 73.5138 480.132 50.1166 480.292 32.9692H472.76C467.632 45.4692 461.222 61.0139 454.972 75.7574L435.26 122.712H403.209L383.178 75.2766C377.088 60.5332 370.678 45.3089 365.389 32.9692H357.537C357.697 48.0332 357.857 69.1869 357.857 83.9304C357.857 95.1483 357.857 109.892 358.017 122.712Z" fill="#01153D"></path><path d="M278.576 8.93094H305.82C305.659 14.3791 305.659 20.9489 305.659 29.2811V41.4628C305.659 45.0962 305.69 49.3086 305.724 54.0599C305.769 60.2057 305.82 67.2533 305.82 75.1164C305.82 112.616 293.32 124.956 236.91 124.956C180.5 124.956 168 112.776 168 75.1164C168 67.2533 168.051 60.1547 168.095 53.9645C168.13 49.1788 168.16 44.936 168.16 41.3025V29.1231C168.16 20.9501 168.16 14.3796 168 8.93094H195.243C195.083 14.5398 195.083 21.4307 195.083 29.1228V73.1933C195.083 95.6291 201.333 100.917 236.91 100.917C272.486 100.917 278.736 95.6291 278.736 73.1933V29.1231C278.736 21.2706 278.736 14.3796 278.576 8.93094Z" fill="#01153D"></path><path d="M869.205 8.93094C858.147 33.2897 826.737 100.917 816 122.712H844.525C857.722 93.021 870.955 63.3458 883.307 33.2897H898.852C911.107 63.3354 924.333 92.9754 937.313 122.712H967.121C956.864 100.917 925.775 33.1295 914.878 8.93094H869.205Z" fill="#01153D"></path><path d="M891.358 81.4275L909.482 122.712H872.757L891.358 81.4275Z" fill="#01153D"></path><path d="M73.6452 59.098L27.7052 23.8318L27.569 0L75.4637 19.0932L122.912 0.541376L123.048 24.3731L77.2821 59.098L130.157 36.8077L151 48.8416L110.929 80.2114L103.797 130.599L82.9541 118.565L75.4637 78.8269L68.8473 118.485L48.1403 130.283L40.4324 79.8111L0 47.9842L20.707 36.1863L73.6452 59.098Z" fill="#01153D"></path></svg> 